<!--
  - Copyright (c) 2023. OctoSheep
  -
  - This file is part of Word Power.
  -
  - Word Power is free software: you can redistribute it and/or modify it under the terms of the GNU General Public License as published by the Free Software Foundation, either version 3 of the License, or any later version.
  -
  - Word Power is distributed in the hope that it will be useful, but WITHOUT ANY WARRANTY; without even the implied warranty of MERCHANTABILITY or FITNESS FOR A PARTICULAR PURPOSE. See the GNU General Public License for more details.
  -
  - You should have received a copy of the GNU General Public License along with Word Power. If not, see <https://www.gnu.org/licenses/>.
  -
  -->

<svg xmlns="http://www.w3.org/2000/svg" height="48" viewBox="0 96 960 960" width="48">
    <path d="M559.5 454.623q0-4.865 3.404-9.607 3.404-4.742 8.357-7.32 30-11.5 61.835-17.75 31.836-6.25 67.236-6.25 21.474 0 42.321 2.261 20.847 2.261 40.847 7.279 6.091 1.198 10.795 6.963Q799 435.963 799 442.155q0 11.197-7 16.869-7 5.672-17.5 2.672-17.539-4.5-36.02-7-18.48-2.5-38.48-2.5-29.595 0-56.928 5.63-27.333 5.631-53.699 16.131-13.105 5-21.489-.509-8.384-5.508-8.384-18.825Zm0 220.169q0-5.324 3.404-10.373 3.404-5.049 8.357-7.723 29.833-11.5 61.752-17.5 31.919-6 67.143-6 21.703 0 42.524 2.511 20.82 2.511 41.32 7.029 5.591 1.805 10.295 7.498Q799 655.927 799 661.915q0 11.437-7.25 17.109-7.25 5.672-17.25 2.672-17.539-4.75-36.02-7.375-18.48-2.625-38.48-2.625-29.766 0-57.263 5.13-27.498 5.131-53.364 16.131-13.605 5-21.739.249t-8.134-18.414Zm0-109.988q0-4.872 3.404-9.701 3.404-4.829 8.357-7.407 30-11.5 61.835-17.75 31.836-6.25 67.06-6.25 21.703 0 42.524 2.261 20.82 2.261 41.32 7.279 5.386 1.198 10.193 6.963Q799 545.963 799 552.155q0 11.197-7.25 16.869-7.25 5.672-17.25 2.672-17.539-4.75-36.02-7.375-18.48-2.625-38.48-2.625-29.595 0-56.928 5.63-27.333 5.631-53.699 16.631-13.105 5-21.489-.41-8.384-5.409-8.384-18.743Zm-310 196.892q53.566 0 104.283 12.5t99.717 37.5v-424q-44.5-30-97.453-46.75T249.5 324.196q-37.743 0-73.989 9.5-36.247 9.5-73.011 23.5v431q30-14 69.5-20.25t77.5-6.25Zm261.5 50q50.165-25 97.945-37.5 47.779-12.5 101.524-12.5 37.804 0 78.417 5.75 40.614 5.75 68.614 15.75v-426q-33.5-17.239-71.157-25.12-37.656-7.88-75.843-7.88-54 0-104.5 16.75t-95 46.922v423.828Zm-233-238Zm204.777 320.978q-6.242 0-12.54-1.019-6.299-1.019-10.694-5.22-47.26-29.5-100.622-46.239-53.362-16.739-109.421-16.739-34.941 0-68.633 8.869-33.693 8.87-67.534 20.537-25.672 12.289-49.753-2.944-24.08-15.234-24.08-44.267V352.891q0-17.391 8.206-31.995 8.207-14.605 24.12-22.657 41.978-19.38 86.461-28.331 44.482-8.951 90.722-8.951 62.909 0 122.2 17.369Q430.5 295.696 482 330.674q50.5-34.739 108.791-52.228 58.291-17.489 120.2-17.489 45.866 0 89.99 9.356 44.124 9.357 85.982 27.832 16.124 8.146 24.831 22.751 8.706 14.604 8.706 31.995v457.392q0 29.811-25.011 44.59-25.011 14.779-49.641-.155-33.022-12.522-66.709-20.892-33.687-8.369-68.622-8.369-55.053 0-106.698 16.858-51.645 16.859-97.906 46.12-4.739 4.239-10.816 5.239-6.078 1-12.32 1Z"/>
</svg>
