<!--
  - Copyright (c) 2023. OctoSheep
  -
  - This file is part of Word Power.
  -
  - Word Power is free software: you can redistribute it and/or modify it under the terms of the GNU General Public License as published by the Free Software Foundation, either version 3 of the License, or any later version.
  -
  - Word Power is distributed in the hope that it will be useful, but WITHOUT ANY WARRANTY; without even the implied warranty of MERCHANTABILITY or FITNESS FOR A PARTICULAR PURPOSE. See the GNU General Public License for more details.
  -
  - You should have received a copy of the GNU General Public License along with Word Power. If not, see <https://www.gnu.org/licenses/>.
  -
  -->

<svg xmlns="http://www.w3.org/2000/svg" height="48" viewBox="0 96 960 960" width="48">
    <path d="M559.5 454.935q0-5.661 3.38-10.08 3.381-4.42 8.381-7.159 30-11.5 62-17.75t66.915-6.25q21.61 0 42.467 2.261t40.857 7.279q6 1.269 10.75 7.174t4.75 12.211q0 10.814-7 16.444-7 5.631-17.5 2.631-17.739-4.5-36.12-7-18.38-2.5-38.38-2.5-29.658 0-56.959 5.63-27.302 5.631-53.563 16.131-13.21 5-21.594-.41-8.384-5.409-8.384-18.612Zm0 220q0-5.661 3.38-10.58 3.381-4.92 8.381-7.659 29.833-11.5 61.916-17.5 32.084-6 66.823-6 22 0 42.75 2.511t41.25 7.029q5.705 1.805 10.352 7.603Q799 656.137 799 662.62q0 10.815-7.25 16.445-7.25 5.631-17.25 2.631-17.739-4.75-36.12-7.375-18.38-2.625-38.38-2.625-29.658 0-57.209 5.13-27.552 5.131-53.313 16.131-13.71 5-21.844.213t-8.134-18.235Zm0-110.051q0-5.436 3.38-9.942 3.381-4.507 8.381-7.246 30-11.5 62-17.75t66.739-6.25q22 0 42.75 2.261t41.25 7.279q5.5 1.269 10.25 7.174t4.75 12.21q0 10.815-7.25 16.445-7.25 5.631-17.25 2.631-17.739-4.75-36.12-7.375-18.38-2.625-38.38-2.625-29.658 0-56.959 5.63-27.302 5.631-53.563 16.631-13.21 5-21.594-.41-8.384-5.409-8.384-18.663ZM511 811.696q50.165-25 97.833-37.5 47.667-12.5 101.822-12.5 37.618 0 78.231 5.75 40.614 5.75 68.614 15.75v-426q-33.5-17.239-71.332-25.12-37.832-7.88-75.668-7.88-54 0-104.5 16.75t-95 46.922v423.828Zm-28.465 82.978q-6.557 0-12.577-1.019t-10.415-5.22q-47.26-29.5-100.816-46.239-53.556-16.739-109.227-16.739-35.447 0-68.887 8.869-33.439 8.87-67.28 20.537-25.572 12.289-49.703-2.822-24.13-15.112-24.13-44.389V352.891q0-17.391 8.206-31.971 8.207-14.581 24.12-22.681 41.978-19.261 86.454-28.272 44.476-9.01 90.716-9.01 62.936 0 122.22 17.369Q430.5 295.696 482 330.674q50.5-34.739 108.784-52.228 58.284-17.489 120.22-17.489 46.209 0 90.155 9.356 43.946 9.357 85.804 27.832 16.124 8.194 24.831 22.775 8.706 14.58 8.706 31.971v457.392q0 30.152-25.011 44.761-25.011 14.608-49.641-.326-33.022-12.522-66.462-20.892-33.439-8.369-68.886-8.369-54.761 0-106.543 16.858-51.783 16.859-98.044 46.12-4.739 4.239-10.661 5.239-5.921 1-12.717 1Z"/>
</svg>
